<svg width="1024" height="1024" viewBox="0 0 1024 1024" fill="none" xmlns="http://www.w3.org/2000/svg">
<g clip-path="url(#clip0_15_52)">
<path d="M197.524 549.009C216.203 597.051 233.637 647.803 251.546 695.942L289.161 758.644L310.422 794.496C314.598 809.888 335.598 817.973 339.661 833.355C354.721 804.06 366.952 767.263 382.581 736.325C398.744 732.323 416.032 728.829 432.381 725.23C449.133 721.543 469.363 716.552 486.176 714.235C502.367 720.889 518.789 726.965 535.411 732.45C547.269 728.201 572.252 717.025 582.993 715.225C589.967 714.056 675.673 732.935 686.772 736.605L729.582 834.791L756.347 794.496L774.835 758.644L819.943 695.942C830.856 662.329 843.58 630.102 855.48 596.861C860.58 582.611 867.608 565.727 871.898 551.561L873.893 551.553C874.18 559.156 873.46 572.302 873.192 580.152L871.015 636.752L866.44 754.843L855.48 815.212C854.084 823.969 849.763 848.066 849.02 857.188C847.554 874.436 836.609 891.688 835.392 908.955L771.13 962.893L710.045 1006.06L618.426 1024H456.519L357.971 1006.33L298.829 962.221L230.513 908.955L207.848 850.523C208.015 836.416 206.636 819.095 206.002 804.777L203.315 735.441C202.307 702.54 197.6 669.644 196.334 636.752C195.241 608.34 197.62 579.932 196.334 551.528L197.524 549.009ZM573.867 783.772C561.24 788.03 546.235 793.371 533.562 796.776C527.124 794.794 497.635 783.305 493.902 783.8L425.888 797.678C416.89 825.88 404.343 859.203 393.894 887.157C412.761 894.063 433.719 900.208 453.011 906.434C468.988 899.709 486.534 892.787 502.078 885.517C488.658 870.544 470.629 854.464 458.585 839.494C475.229 838.799 493.71 839.261 510.555 839.328L590.14 839.476L611.478 839.193C599.644 854.206 578.722 871.849 567.689 886.006C583.601 892.784 600.389 900.058 616.483 906.32C632.778 902.21 659.085 893.174 675.419 887.469C664.611 858.989 652.354 827.095 642.862 798.159C620.581 792.4 595.813 789.345 573.867 783.772Z" fill="black"/>
<path d="M534.323 0C536.881 0.279622 554.335 6.64204 557.46 7.76728L601.087 23.549C610.202 26.841 620.418 30.853 629.693 33.2858C624.467 24.3879 614.877 12.4709 608.358 4.01061C645.363 17.9053 682.259 32.089 719.043 46.5591C734.046 52.3852 755.981 59.6419 769.523 67.4429C771.328 68.4831 787.492 84.0446 790.711 86.9071C816.763 110.286 842.515 133.997 867.96 158.035C858.422 158.197 847.002 157.121 837.469 156.122C841.234 162.387 846.891 169.862 851.086 176.101C862.427 192.972 873.894 209.4 885 226.449C877.779 289.459 869.773 357.603 860.622 420.104C837.226 406.672 804.896 388.992 782.905 374.402C788.217 349.363 793.765 324.375 799.546 299.44C785.423 283.494 771.722 267.175 758.459 250.502C754.654 251.34 750.739 252.381 746.999 253.479C717.57 262.127 688.019 270.295 658.476 278.524C670.107 271.368 681.428 264.579 692.7 256.843C656.247 267.034 619.932 277.717 583.766 288.887L551.665 298.384C546.84 299.798 538.782 302.397 534.063 303.202L438.337 275.055C421.264 269.906 393.478 260.567 376.653 257.266C386.929 264.93 400.635 272.272 411.839 278.762C378.779 269.499 343.211 260.39 310.539 250.235C297.122 265.152 281.671 284.093 269.058 299.785C275.371 321.455 281.533 352.139 286.959 374.823C260.955 389.677 234.346 405.74 208.537 421L184 224.896C188.64 219.768 199.681 203.295 203.694 197.315C212.747 183.824 222.635 169.67 231.219 155.987C221.809 156.386 212.631 157.231 203.07 157.539C234.535 126.907 268.794 97.2071 301.18 67.4375C304.214 64.6508 332.906 54.0224 338.369 51.8165C363.377 41.5259 388.479 31.4649 413.672 21.6349C429.351 15.5467 445.004 10.1204 460.574 3.71072C453.824 13.6636 446.558 23.1884 439.698 33.4155C471.153 22.9628 502.773 10.5108 534.323 0Z" fill="black"/>
<path d="M330.891 418.47C373.703 416.148 421.405 422.627 462.677 433.543C484.172 439.228 508.541 449.617 531.032 450.256C557.054 450.996 588.396 438.633 613.243 431.959C635.646 425.941 657.148 421.357 680.292 419.517C712.966 417.177 745.798 418.307 778.227 422.889C799.322 425.985 820.187 431.618 841.504 434.084C854.802 435.621 867.588 436.729 880.969 437.421C881.03 454.475 881 471.528 880.879 488.581C846.865 492.078 846.196 511.123 837.004 539.076C814.182 608.479 758.729 659.36 681.102 648.548C663.723 646.128 653.886 642.617 638.315 634.845C604.789 615.795 585.405 588.301 572.068 552.787C565.912 538.096 560.798 520.615 549.915 508.629C541.026 498.837 521.685 502.281 514.563 511.987C508.875 519.74 505.221 531.219 501.988 540.245C489.039 576.388 473.81 605.9 440.457 628.244C411.701 647.156 376.539 654.041 342.661 647.394C291.78 637.488 257.141 601.558 238.976 554.598C233.011 539.177 227.966 518.787 219.238 504.759C211.729 492.689 200.018 490.56 187 488.073C187.372 471.6 187.024 453.743 187.115 437.12C202.073 436.558 214.868 436.01 229.77 433.492C247.745 430.455 265.691 425.786 283.578 422.921C299.248 420.518 315.046 419.032 330.891 418.47Z" fill="black"/>
<path d="M588.36 665.126C596.467 672.149 604.794 679.081 613 686.007C604.874 690.031 594.122 694.377 585.581 698.216L534.281 721C513.05 710.886 491 702.455 469.589 692.705C464.561 690.415 459.769 688.323 455 685.534C463.42 679.11 471.767 671.672 480.208 665C498.235 671.814 516.184 678.821 534.049 686.02C551.902 679.878 570.715 671.985 588.36 665.126Z" fill="black"/>
<path d="M873 553C875.011 546.121 875.265 546.552 874.803 552.991L873 553Z" fill="#13100F"/>
<path d="M196.245 553C196.133 551.899 196.012 550.809 196 549.686C195.998 549.481 196.061 547.701 196.432 548.044C196.815 548.396 196.92 549.918 197 550.51L196.245 553Z" fill="#443E46"/>
</g>
<defs>
<clipPath id="clip0_15_52">
<rect width="1024" height="1024" fill="white"/>
</clipPath>
</defs>
</svg>
